<mxfile host="app.diagrams.net" agent="Mozilla/5.0 (Windows NT 10.0; Win64; x64) AppleWebKit/537.36 (KHTML, like Gecko) Chrome/134.0.0.0 Safari/537.36" version="26.2.4">
  <diagram name="Page-1" id="cUy0uA9e-aJClVT5OV86">
    <mxGraphModel grid="1" page="1" gridSize="10" guides="1" tooltips="1" connect="1" arrows="1" fold="1" pageScale="1" pageWidth="850" pageHeight="1100" math="0" shadow="0">
      <root>
        <mxCell id="0" />
        <mxCell id="1" parent="0" />
        <mxCell id="ANkXeyOUMZ7gsoq6VOGa-7" value="" style="rounded=0;whiteSpace=wrap;html=1;" vertex="1" parent="1">
          <mxGeometry x="-370" y="-100" width="1600" height="1190" as="geometry" />
        </mxCell>
        <mxCell id="bPECPYtlmH-EWLURcWA6-1" value="" style="rounded=1;arcSize=10;dashed=0;fillColor=none;gradientColor=none;strokeWidth=2;" vertex="1" parent="1">
          <mxGeometry x="-160" y="-20" width="1330" height="880" as="geometry" />
        </mxCell>
        <mxCell id="bPECPYtlmH-EWLURcWA6-2" value="" style="dashed=0;html=1;shape=mxgraph.aws3.virtual_private_cloud;fillColor=#F58536;gradientColor=none;dashed=0;" vertex="1" parent="1">
          <mxGeometry x="-110" y="-10" width="52" height="36" as="geometry" />
        </mxCell>
        <mxCell id="bPECPYtlmH-EWLURcWA6-8" style="edgeStyle=orthogonalEdgeStyle;rounded=0;orthogonalLoop=1;jettySize=auto;html=1;" edge="1" parent="1" source="bPECPYtlmH-EWLURcWA6-3" target="bPECPYtlmH-EWLURcWA6-4">
          <mxGeometry relative="1" as="geometry" />
        </mxCell>
        <mxCell id="JWJF0uv4IHwmpPDvQme4-2" value="" style="edgeStyle=orthogonalEdgeStyle;rounded=0;orthogonalLoop=1;jettySize=auto;html=1;" edge="1" parent="1" source="bPECPYtlmH-EWLURcWA6-3" target="JWJF0uv4IHwmpPDvQme4-1">
          <mxGeometry relative="1" as="geometry">
            <mxPoint x="450" y="-100" as="targetPoint" />
          </mxGeometry>
        </mxCell>
        <mxCell id="bPECPYtlmH-EWLURcWA6-3" value="" style="sketch=0;outlineConnect=0;fontColor=#232F3E;gradientColor=none;fillColor=#8C4FFF;strokeColor=none;dashed=0;verticalLabelPosition=bottom;verticalAlign=top;align=center;html=1;fontSize=12;fontStyle=0;aspect=fixed;pointerEvents=1;shape=mxgraph.aws4.internet_gateway;" vertex="1" parent="1">
          <mxGeometry x="420" y="-60" width="60" height="60" as="geometry" />
        </mxCell>
        <mxCell id="bPECPYtlmH-EWLURcWA6-20" style="edgeStyle=orthogonalEdgeStyle;rounded=0;orthogonalLoop=1;jettySize=auto;html=1;" edge="1" parent="1" source="bPECPYtlmH-EWLURcWA6-4" target="bPECPYtlmH-EWLURcWA6-19">
          <mxGeometry relative="1" as="geometry" />
        </mxCell>
        <mxCell id="bPECPYtlmH-EWLURcWA6-4" value="" style="outlineConnect=0;dashed=0;verticalLabelPosition=bottom;verticalAlign=top;align=center;html=1;shape=mxgraph.aws3.application_load_balancer;fillColor=#F58534;gradientColor=none;" vertex="1" parent="1">
          <mxGeometry x="424.5" y="70" width="69" height="72" as="geometry" />
        </mxCell>
        <mxCell id="bPECPYtlmH-EWLURcWA6-9" value="Private Subnet 1" style="sketch=0;outlineConnect=0;gradientColor=none;html=1;whiteSpace=wrap;fontSize=12;fontStyle=0;shape=mxgraph.aws4.group;grIcon=mxgraph.aws4.group_subnet;strokeColor=#879196;fillColor=none;verticalAlign=top;align=left;spacingLeft=30;fontColor=#879196;dashed=0;" vertex="1" parent="1">
          <mxGeometry x="-100" y="330" width="460" height="350" as="geometry" />
        </mxCell>
        <mxCell id="bPECPYtlmH-EWLURcWA6-12" value="" style="sketch=0;outlineConnect=0;fontColor=#232F3E;gradientColor=none;fillColor=#ED7100;strokeColor=none;dashed=0;verticalLabelPosition=bottom;verticalAlign=top;align=center;html=1;fontSize=12;fontStyle=0;aspect=fixed;pointerEvents=1;shape=mxgraph.aws4.container_2;" vertex="1" parent="1">
          <mxGeometry x="140" y="500" width="108.38" height="70" as="geometry" />
        </mxCell>
        <mxCell id="bPECPYtlmH-EWLURcWA6-13" value="" style="sketch=0;outlineConnect=0;fontColor=#232F3E;gradientColor=none;fillColor=#ED7100;strokeColor=none;dashed=0;verticalLabelPosition=bottom;verticalAlign=top;align=center;html=1;fontSize=12;fontStyle=0;aspect=fixed;pointerEvents=1;shape=mxgraph.aws4.ecs_task;" vertex="1" parent="1">
          <mxGeometry x="30" y="500" width="69.38" height="90" as="geometry" />
        </mxCell>
        <mxCell id="bPECPYtlmH-EWLURcWA6-14" value="Private Subnet 2" style="sketch=0;outlineConnect=0;gradientColor=none;html=1;whiteSpace=wrap;fontSize=12;fontStyle=0;shape=mxgraph.aws4.group;grIcon=mxgraph.aws4.group_subnet;strokeColor=#879196;fillColor=none;verticalAlign=top;align=left;spacingLeft=30;fontColor=#879196;dashed=0;" vertex="1" parent="1">
          <mxGeometry x="580" y="320" width="460" height="350" as="geometry" />
        </mxCell>
        <mxCell id="bPECPYtlmH-EWLURcWA6-17" value="" style="sketch=0;outlineConnect=0;fontColor=#232F3E;gradientColor=none;fillColor=#ED7100;strokeColor=none;dashed=0;verticalLabelPosition=bottom;verticalAlign=top;align=center;html=1;fontSize=12;fontStyle=0;aspect=fixed;pointerEvents=1;shape=mxgraph.aws4.container_2;" vertex="1" parent="1">
          <mxGeometry x="650" y="488" width="108.38" height="70" as="geometry" />
        </mxCell>
        <mxCell id="bPECPYtlmH-EWLURcWA6-18" value="" style="sketch=0;outlineConnect=0;fontColor=#232F3E;gradientColor=none;fillColor=#ED7100;strokeColor=none;dashed=0;verticalLabelPosition=bottom;verticalAlign=top;align=center;html=1;fontSize=12;fontStyle=0;aspect=fixed;pointerEvents=1;shape=mxgraph.aws4.ecs_task;" vertex="1" parent="1">
          <mxGeometry x="860" y="478" width="69.38" height="90" as="geometry" />
        </mxCell>
        <mxCell id="bPECPYtlmH-EWLURcWA6-19" value="" style="sketch=0;outlineConnect=0;fontColor=#232F3E;gradientColor=none;fillColor=#ED7100;strokeColor=none;dashed=0;verticalLabelPosition=bottom;verticalAlign=top;align=center;html=1;fontSize=12;fontStyle=0;aspect=fixed;pointerEvents=1;shape=mxgraph.aws4.auto_scaling2;" vertex="1" parent="1">
          <mxGeometry x="320" y="278" width="290" height="290" as="geometry" />
        </mxCell>
        <mxCell id="JWJF0uv4IHwmpPDvQme4-1" value="" style="ellipse;shape=cloud;whiteSpace=wrap;html=1;" vertex="1" parent="1">
          <mxGeometry x="399" y="-250" width="120" height="80" as="geometry" />
        </mxCell>
        <mxCell id="ANkXeyOUMZ7gsoq6VOGa-12" style="edgeStyle=orthogonalEdgeStyle;rounded=0;orthogonalLoop=1;jettySize=auto;html=1;" edge="1" parent="1" source="ANkXeyOUMZ7gsoq6VOGa-4" target="bPECPYtlmH-EWLURcWA6-9">
          <mxGeometry relative="1" as="geometry" />
        </mxCell>
        <mxCell id="ANkXeyOUMZ7gsoq6VOGa-4" value="Public Subnet" style="sketch=0;outlineConnect=0;gradientColor=none;html=1;whiteSpace=wrap;fontSize=12;fontStyle=0;shape=mxgraph.aws4.group;grIcon=mxgraph.aws4.group_subnet;strokeColor=#879196;fillColor=none;verticalAlign=top;align=left;spacingLeft=30;fontColor=#879196;dashed=0;" vertex="1" parent="1">
          <mxGeometry x="-70" y="50" width="300" height="200" as="geometry" />
        </mxCell>
        <mxCell id="ANkXeyOUMZ7gsoq6VOGa-5" value="" style="outlineConnect=0;dashed=0;verticalLabelPosition=bottom;verticalAlign=top;align=center;html=1;shape=mxgraph.aws3.vpc_nat_gateway;fillColor=#F58536;gradientColor=none;" vertex="1" parent="1">
          <mxGeometry x="22" y="110" width="108" height="100" as="geometry" />
        </mxCell>
        <mxCell id="ANkXeyOUMZ7gsoq6VOGa-11" style="edgeStyle=orthogonalEdgeStyle;rounded=0;orthogonalLoop=1;jettySize=auto;html=1;" edge="1" parent="1" source="ANkXeyOUMZ7gsoq6VOGa-10" target="ANkXeyOUMZ7gsoq6VOGa-5">
          <mxGeometry relative="1" as="geometry" />
        </mxCell>
        <mxCell id="ANkXeyOUMZ7gsoq6VOGa-10" value="Amazon DynamoDB" style="sketch=0;outlineConnect=0;fontColor=#232F3E;gradientColor=none;strokeColor=#ffffff;fillColor=#232F3E;dashed=0;verticalLabelPosition=middle;verticalAlign=bottom;align=center;html=1;whiteSpace=wrap;fontSize=10;fontStyle=1;spacing=3;shape=mxgraph.aws4.productIcon;prIcon=mxgraph.aws4.dynamodb;" vertex="1" parent="1">
          <mxGeometry x="-320" y="60" width="80" height="110" as="geometry" />
        </mxCell>
        <mxCell id="ANkXeyOUMZ7gsoq6VOGa-14" style="edgeStyle=orthogonalEdgeStyle;rounded=0;orthogonalLoop=1;jettySize=auto;html=1;" edge="1" parent="1" source="ANkXeyOUMZ7gsoq6VOGa-13" target="ANkXeyOUMZ7gsoq6VOGa-5">
          <mxGeometry relative="1" as="geometry" />
        </mxCell>
        <mxCell id="ANkXeyOUMZ7gsoq6VOGa-13" value="" style="outlineConnect=0;dashed=0;verticalLabelPosition=bottom;verticalAlign=top;align=center;html=1;shape=mxgraph.aws3.ecr;fillColor=#F58534;gradientColor=none;" vertex="1" parent="1">
          <mxGeometry x="-320" y="210" width="69" height="72" as="geometry" />
        </mxCell>
        <mxCell id="ANkXeyOUMZ7gsoq6VOGa-15" value="AWS" style="text;strokeColor=none;fillColor=none;html=1;fontSize=24;fontStyle=1;verticalAlign=middle;align=center;" vertex="1" parent="1">
          <mxGeometry x="-380" y="-110" width="100" height="40" as="geometry" />
        </mxCell>
      </root>
    </mxGraphModel>
  </diagram>
</mxfile>
